HIERARCHY
ROOT Hips
{
	OFFSET -0.001795 -0.223333 0.028219
	CHANNELS 6 Xposition Yposition Zposition Zrotation Yrotation Xrotation 
	JOINT LeftUpLeg
	{
		OFFSET 0.069520 -0.091406 -0.006815
		CHANNELS 3 Zrotation Yrotation Xrotation
		JOINT LeftLeg
		{
			OFFSET 0.034277 -0.375199 -0.004496
			CHANNELS 3 Zrotation Yrotation Xrotation
			JOINT LeftFoot
			{
				OFFSET -0.013596 -0.397961 -0.043693
				CHANNELS 3 Zrotation Yrotation Xrotation
				JOINT LeftToe
				{
					OFFSET 0.026358 -0.055791 0.119288
					CHANNELS 3 Zrotation Yrotation Xrotation
					End Site
					{
						OFFSET 0.000000 0.000000 0.000000
					}
				}
			}
		}
	}
	JOINT RightUpLeg
	{
		OFFSET -0.067670 -0.090522 -0.004320
		CHANNELS 3 Zrotation Yrotation Xrotation
		JOINT RightLeg
		{
			OFFSET -0.038290 -0.382569 -0.008850
			CHANNELS 3 Zrotation Yrotation Xrotation
			JOINT RightFoot
			{
				OFFSET 0.015774 -0.398415 -0.042312
				CHANNELS 3 Zrotation Yrotation Xrotation
				JOINT RightToe
				{
					OFFSET -0.025372 -0.048144 0.123348
					CHANNELS 3 Zrotation Yrotation Xrotation
					End Site
					{
						OFFSET 0.000000 0.000000 0.000000
					}
				}
			}
		}
	}
	JOINT Spine
	{
		OFFSET -0.002533 0.108963 -0.026696
		CHANNELS 3 Zrotation Yrotation Xrotation
		JOINT Spine1
		{
			OFFSET 0.005487 0.135180 0.001092
			CHANNELS 3 Zrotation Yrotation Xrotation
			JOINT Spine2
			{
				OFFSET 0.001457 0.052922 0.025425
				CHANNELS 3 Zrotation Yrotation Xrotation
				JOINT Neck
				{
					OFFSET -0.002778 0.213870 -0.042857
					CHANNELS 3 Zrotation Yrotation Xrotation
					JOINT Head
					{
						OFFSET 0.005152 0.064970 0.051349
						CHANNELS 3 Zrotation Yrotation Xrotation
						End Site
						{
							OFFSET 0.000000 0.000000 0.000000
						}
					}
				}
				JOINT LeftShoulder
				{
					OFFSET 0.078845 0.121749 -0.034090
					CHANNELS 3 Zrotation Yrotation Xrotation
					JOINT LeftArm
					{
						OFFSET 0.090977 0.030469 -0.008868
						CHANNELS 3 Zrotation Yrotation Xrotation
						JOINT LeftForeArm
						{
							OFFSET 0.259612 -0.012772 -0.027456
							CHANNELS 3 Zrotation Yrotation Xrotation
							JOINT LeftHand
							{
								OFFSET 0.249234 0.008986 -0.001171
								CHANNELS 3 Zrotation Yrotation Xrotation
								End Site
								{
									OFFSET 0.000000 0.000000 0.000000
								}
							}
						}
					}
				}
				JOINT RightShoulder
				{
					OFFSET -0.081759 0.118833 -0.038615
					CHANNELS 3 Zrotation Yrotation Xrotation
					JOINT RightArm
					{
						OFFSET -0.096012 0.032551 -0.009143
						CHANNELS 3 Zrotation Yrotation Xrotation
						JOINT RightForeArm
						{
							OFFSET -0.253742 -0.013329 -0.021401
							CHANNELS 3 Zrotation Yrotation Xrotation
							JOINT RightHand
							{
								OFFSET -0.255298 0.007772 -0.005559
								CHANNELS 3 Zrotation Yrotation Xrotation
								End Site
								{
									OFFSET 0.000000 0.000000 0.000000
								}
							}
						}
					}
				}
			}
		}
	}
}
MOTION
Frames: 13
Frame Time: 0.050000
0.027297 0.933479 0.008642 1.373269 51.314895 -0.364180 10.026803 -1.723822 3.336481 -4.620646 -0.203017 -1.172642 6.322493 14.721130 10.657314 0.000000 0.000000 0.000000 -9.575397 -1.671533 -0.241703 3.421699 -1.177723 3.682862 -6.451100 -13.071847 9.232852 0.000000 0.000000 0.000000 5.654847 -2.038981 13.546406 -6.661109 2.173475 -27.003134 -2.858336 7.251614 26.394843 11.410157 3.063529 -40.724946 0.000000 0.000000 0.000000 -20.800629 -11.209274 -8.817561 -39.435079 6.014387 -4.417143 1.423007 -27.661279 -1.690642 0.000000 0.000000 0.000000 36.477272 -11.081361 7.135921 43.461108 17.775728 -4.990967 -6.916739 23.034202 0.678857 0.000000 0.000000 0.000000 
0.027909 0.933241 0.008374 1.366014 51.393286 -0.193508 9.960856 -1.733731 3.525038 -4.816597 -0.221183 -1.366151 6.552622 14.951403 10.677228 0.000000 0.000000 0.000000 -9.624026 -1.683266 -0.186842 3.348168 -1.127564 3.301516 -6.472151 -13.025411 9.424663 0.000000 0.000000 0.000000 5.603777 -2.030389 13.537221 -6.649130 2.152864 -27.126434 -2.785703 7.773180 26.445829 11.420263 3.145272 -40.822418 0.000000 0.000000 0.000000 -20.968888 -11.576927 -8.967277 -39.096777 6.068226 -4.266269 1.962174 -27.449034 -1.833907 0.000000 0.000000 0.000000 36.621517 -11.211442 7.343325 43.416822 18.111879 -4.975257 -7.035258 23.373563 0.688407 0.000000 0.000000 0.000000 
0.028129 0.933105 0.008063 1.532219 51.554407 0.062400 9.817274 -1.728228 3.715072 -4.877474 -0.238076 -1.680224 6.729751 15.182001 10.843939 0.000000 0.000000 0.000000 -9.818843 -1.727726 -0.289703 3.441770 -1.142848 3.114671 -6.707466 -13.376785 9.758598 0.000000 0.000000 0.000000 5.546476 -2.023790 13.528267 -6.739757 2.176706 -26.988220 -2.729766 7.927993 26.295286 11.349449 3.208550 -40.869590 0.000000 0.000000 0.000000 -21.084946 -11.466281 -9.190359 -38.909184 6.167246 -4.210902 2.434027 -27.370184 -1.957083 0.000000 0.000000 0.000000 36.589002 -11.109245 7.526596 43.434348 18.274238 -4.921649 -7.163073 24.046302 0.707148 0.000000 0.000000 0.000000 
0.027917 0.932900 0.007673 1.480755 51.982544 0.136112 9.889310 -1.775251 3.824579 -4.994993 -0.267221 -2.024564 6.908640 15.470332 11.192988 0.000000 0.000000 0.000000 -9.718485 -1.725525 -0.467481 3.290579 -1.111516 3.097189 -6.736777 -13.359251 9.831353 0.000000 0.000000 0.000000 5.595617 -2.031366 13.485386 -6.638663 2.177461 -26.884277 -2.793112 8.080890 26.317188 11.344033 3.277397 -40.963727 0.000000 0.000000 0.000000 -21.275562 -11.722140 -9.376824 -38.780342 6.315963 -4.132382 2.935128 -27.145364 -2.084812 0.000000 0.000000 0.000000 36.633300 -11.170534 7.700668 43.544968 18.641761 -4.843742 -7.172352 24.420457 0.735591 0.000000 0.000000 0.000000 
0.027104 0.932677 0.007218 1.602034 52.232993 0.085414 9.772617 -1.760162 3.869536 -5.036359 -0.278146 -2.083038 7.079944 15.734802 11.467944 0.000000 0.000000 0.000000 -9.675418 -1.732838 -0.434353 3.170247 -1.096626 3.252992 -6.745534 -13.446499 9.654813 0.000000 0.000000 0.000000 5.498074 -2.122521 13.965714 -6.652095 2.154080 -27.070180 -2.742482 8.064793 26.348621 11.206700 3.346487 -40.983911 0.000000 0.000000 0.000000 -21.462835 -11.838634 -9.469759 -38.587649 6.359326 -4.059480 3.307416 -26.901265 -2.146400 0.000000 0.000000 0.000000 36.873798 -11.002844 8.003753 43.345731 19.030675 -4.820783 -7.303010 25.005125 0.738264 0.000000 0.000000 0.000000 
0.025823 0.932525 0.006679 1.578404 52.548707 0.004463 9.743318 -1.754673 3.781040 -4.985512 -0.287351 -2.215575 7.279924 15.992853 11.660778 0.000000 0.000000 0.000000 -9.592023 -1.730962 -0.557648 3.083941 -1.081998 3.275409 -6.732562 -13.382501 9.665957 0.000000 0.000000 0.000000 5.381580 -2.218776 14.452398 -6.475656 2.134616 -27.078757 -2.785392 8.244131 26.321568 11.249152 3.381049 -41.473919 0.000000 0.000000 0.000000 -21.466534 -11.984545 -9.536376 -38.453634 6.233970 -3.945250 3.554228 -26.819432 -2.218456 0.000000 0.000000 0.000000 36.855694 -11.175327 7.971218 43.432376 19.346994 -4.722800 -7.031021 25.311111 0.811428 0.000000 0.000000 0.000000 
0.024181 0.932479 0.006042 1.565439 52.818514 -0.032916 9.677228 -1.749058 3.760355 -4.852075 -0.297273 -2.477161 7.260467 15.963399 11.676479 0.000000 0.000000 0.000000 -9.484844 -1.722903 -0.576638 3.110747 -1.084966 3.124802 -6.740999 -13.334828 9.761917 0.000000 0.000000 0.000000 5.375421 -2.286385 14.724649 -6.523685 2.139582 -27.079196 -2.684069 8.229740 26.513351 11.243120 3.419432 -41.880065 0.000000 0.000000 0.000000 -21.716307 -12.079245 -9.707650 -38.268559 6.058866 -3.798717 3.752769 -26.846225 -2.270547 0.000000 0.000000 0.000000 36.852402 -10.984932 8.235918 43.556240 19.706702 -4.641073 -7.419560 25.424039 0.756158 0.000000 0.000000 0.000000 
0.022474 0.932567 0.005436 1.611844 52.950129 -0.035897 9.633916 -1.745602 3.766288 -4.780873 -0.307838 -2.730633 7.327442 16.123066 11.945898 0.000000 0.000000 0.000000 -9.410356 -1.714581 -0.465296 3.069726 -1.050644 2.796296 -6.658387 -13.164025 9.731578 0.000000 0.000000 0.000000 5.286280 -2.362744 15.095612 -6.426143 2.130485 -27.054530 -2.689368 8.252453 26.624379 11.164667 3.474113 -42.680762 0.000000 0.000000 0.000000 -21.975256 -12.376356 -9.756556 -38.171499 6.043352 -3.706188 3.686012 -27.182474 -2.285587 0.000000 0.000000 0.000000 36.724770 -10.992784 8.218208 43.711758 19.841800 -4.564923 -7.235209 25.445853 0.788806 0.000000 0.000000 0.000000 
0.020809 0.932702 0.005048 1.588584 53.089150 0.001745 9.547496 -1.741931 3.837639 -4.555084 -0.319134 -3.193418 7.145812 15.945670 11.989769 0.000000 0.000000 0.000000 -9.349043 -1.707595 -0.506737 3.116995 -1.054221 2.604711 -6.730684 -13.281917 9.796642 0.000000 0.000000 0.000000 5.240553 -2.387781 15.218795 -6.383434 2.146154 -26.945875 -2.696654 8.206612 26.568298 11.235232 3.456376 -42.881176 0.000000 0.000000 0.000000 -22.055536 -12.380610 -9.805944 -38.268344 5.961545 -3.684623 3.602204 -27.537825 -2.306956 0.000000 0.000000 0.000000 36.725443 -11.016529 8.195274 43.526013 19.932590 -4.537631 -7.181371 25.228393 0.773488 0.000000 0.000000 0.000000 
0.019253 0.932659 0.005040 1.558956 53.366121 -0.163096 9.619340 -1.802532 4.166321 -4.471050 -0.350880 -3.810097 7.119867 15.996259 12.276189 0.000000 0.000000 0.000000 -9.283753 -1.713388 -0.254134 3.024312 -1.013842 2.331442 -6.812740 -13.409037 9.910366 0.000000 0.000000 0.000000 5.247911 -2.453598 15.466158 -6.280426 2.129109 -27.002810 -2.724630 7.933085 26.731677 11.101086 3.495998 -43.524796 0.000000 0.000000 0.000000 -22.017250 -12.346015 -9.752193 -38.374236 5.989969 -3.739688 3.247109 -28.152772 -2.281383 0.000000 0.000000 0.000000 36.411804 -10.711177 8.284526 43.359092 19.825899 -4.502905 -7.413860 24.617432 0.667738 0.000000 0.000000 0.000000 
0.017713 0.932543 0.005407 1.610104 53.591299 -0.246922 9.759908 -1.866283 4.391415 -4.524185 -0.383649 -4.217879 7.164292 16.170121 12.679887 0.000000 0.000000 0.000000 -9.308641 -1.739448 0.075837 3.153383 -1.030971 2.003503 -6.877066 -13.657648 9.729950 0.000000 0.000000 0.000000 5.229886 -2.533230 15.797176 -6.348159 2.155798 -26.892243 -2.864224 7.637756 26.584381 11.188316 3.428904 -43.758282 0.000000 0.000000 0.000000 -21.834195 -12.378865 -9.522929 -38.434352 6.137376 -3.847239 3.346824 -28.555468 -2.345894 0.000000 0.000000 0.000000 36.383541 -10.619308 8.257298 43.105123 19.581357 -4.578188 -7.790826 24.206970 0.580051 0.000000 0.000000 0.000000 
0.016086 0.932360 0.006145 1.518139 54.082231 -0.536836 9.880580 -1.938819 4.624648 -4.335863 -0.399032 -4.564128 7.065739 16.095288 12.840946 0.000000 0.000000 0.000000 -9.216972 -1.760274 0.543573 3.220431 -1.037730 1.674232 -6.943790 -13.812868 9.752058 0.000000 0.000000 0.000000 5.264664 -2.651340 16.202291 -6.414776 2.164054 -26.894515 -2.771875 7.231199 26.589232 11.141436 3.420697 -44.633133 0.000000 0.000000 0.000000 -21.770456 -12.279807 -9.466164 -38.441340 6.231352 -3.912797 3.175284 -29.053617 -2.343886 0.000000 0.000000 0.000000 36.297568 -10.456182 8.300646 43.045741 19.321987 -4.647783 -8.449260 23.578036 0.451076 0.000000 0.000000 0.000000 
0.014349 0.932359 0.007303 1.421101 54.541767 -0.630552 10.120776 -2.006225 4.558133 -4.440981 -0.430751 -4.760125 7.233283 16.304327 13.030864 0.000000 0.000000 0.000000 -9.068791 -1.754736 0.640380 3.251084 -1.047646 1.547109 -6.861076 -13.712207 9.550998 0.000000 0.000000 0.000000 5.256509 -2.691146 16.328612 -6.304570 2.173471 -26.745528 -2.843529 7.041158 26.534648 11.265779 3.383697 -44.609217 0.000000 0.000000 0.000000 -21.475385 -12.198095 -9.357956 -38.323860 6.431134 -4.005346 3.123058 -29.143592 -2.347433 0.000000 0.000000 0.000000 36.435845 -10.419045 8.420404 42.852947 19.014849 -4.799896 -8.770676 22.914706 0.368661 0.000000 0.000000 0.000000 
